<svg width="27" height="29" viewBox="0 0 27 29" fill="none" xmlns="http://www.w3.org/2000/svg">
<path d="M5.6231 28.4963C4.74894 28.4963 4.00061 28.1917 3.37811 27.5825C2.7556 26.9732 2.44435 26.2408 2.44435 25.3852V5.163C1.99403 5.163 1.61655 5.01393 1.31192 4.71578C1.0073 4.41763 0.85498 4.04819 0.85498 3.60745C0.85498 3.16671 1.0073 2.79726 1.31192 2.49912C1.61655 2.20097 1.99403 2.05189 2.44435 2.05189H8.80184C8.80184 1.61115 8.95415 1.24171 9.25878 0.94356C9.56341 0.645412 9.94089 0.496338 10.3912 0.496338H16.7487C17.199 0.496338 17.5765 0.645412 17.8811 0.94356C18.1858 1.24171 18.3381 1.61115 18.3381 2.05189H24.6956C25.1459 2.05189 25.5234 2.20097 25.828 2.49912C26.1326 2.79726 26.2849 3.16671 26.2849 3.60745C26.2849 4.04819 26.1326 4.41763 25.828 4.71578C25.5234 5.01393 25.1459 5.163 24.6956 5.163V25.3852C24.6956 26.2408 24.3843 26.9732 23.7618 27.5825C23.1393 28.1917 22.391 28.4963 21.5168 28.4963H5.6231ZM21.5168 5.163H5.6231V25.3852H21.5168V5.163ZM13.57 17.4519L16.5898 20.4074C16.8811 20.6926 17.252 20.8352 17.7023 20.8352C18.1526 20.8352 18.5235 20.6926 18.8149 20.4074C19.1063 20.1223 19.252 19.7593 19.252 19.3186C19.252 18.8778 19.1063 18.5149 18.8149 18.2297L15.7951 15.2741L18.8149 12.3186C19.1063 12.0334 19.252 11.6704 19.252 11.2297C19.252 10.7889 19.1063 10.426 18.8149 10.1408C18.5235 9.8556 18.1526 9.71301 17.7023 9.71301C17.252 9.71301 16.8811 9.8556 16.5898 10.1408L13.57 13.0963L10.5501 10.1408C10.2588 9.8556 9.88791 9.71301 9.43759 9.71301C8.98727 9.71301 8.61641 9.8556 8.32503 10.1408C8.03364 10.426 7.88795 10.7889 7.88795 11.2297C7.88795 11.6704 8.03364 12.0334 8.32503 12.3186L11.3448 15.2741L8.32503 18.2297C8.03364 18.5149 7.88795 18.8778 7.88795 19.3186C7.88795 19.7593 8.03364 20.1223 8.32503 20.4074C8.61641 20.6926 8.98727 20.8352 9.43759 20.8352C9.88791 20.8352 10.2588 20.6926 10.5501 20.4074L13.57 17.4519Z" fill="white"/>
</svg>
