<svg width="26" height="29" viewBox="0 0 26 29" fill="none" xmlns="http://www.w3.org/2000/svg">
<path d="M2.83176 28.4963C2.13137 28.4963 1.5318 28.247 1.03305 27.7482C0.534291 27.2494 0.284912 26.6499 0.284912 25.9495C0.284912 25.2491 0.534291 24.6495 1.03305 24.1508C1.5318 23.652 2.13137 23.4026 2.83176 23.4026H23.2065C23.9069 23.4026 24.5065 23.652 25.0052 24.1508C25.504 24.6495 25.7533 25.2491 25.7533 25.9495C25.7533 26.6499 25.504 27.2494 25.0052 27.7482C24.5065 28.247 23.9069 28.4963 23.2065 28.4963H2.83176ZM4.10518 20.8558C3.74437 20.8558 3.44194 20.7338 3.19786 20.4897C2.95379 20.2456 2.83176 19.9432 2.83176 19.5824V16.6217C2.83176 16.4519 2.86359 16.2874 2.92726 16.1282C2.99093 15.969 3.08644 15.8258 3.21378 15.6984L14.3562 4.55601L19.1316 9.33134L7.98911 20.4738C7.86177 20.6011 7.71851 20.6966 7.55933 20.7603C7.40016 20.824 7.23567 20.8558 7.06588 20.8558H4.10518ZM5.3786 18.309H6.52468L15.566 9.33134L14.3562 8.12159L5.3786 17.1629V18.309ZM20.5642 7.93057L15.7888 3.15524L18.081 0.863083C18.3144 0.608399 18.6116 0.486363 18.9724 0.496975C19.3332 0.507586 19.6303 0.629623 19.8638 0.863083L22.8563 3.85562C23.0898 4.08909 23.2065 4.38091 23.2065 4.7311C23.2065 5.08129 23.0898 5.38373 22.8563 5.63842L20.5642 7.93057Z" fill="white"/>
</svg>
